<svg version="1.2" xmlns="http://www.w3.org/2000/svg" viewBox="0 0 1024 1024" width="1024" height="1024"><style>.a{fill:#fff;stroke:#000;paint-order:stroke fill markers;stroke-linejoin:round;stroke-width:80}</style><path fill-rule="evenodd" class="a" d="m510.1 949.9c-242.2 0-437.9-195.7-437.9-437.9 0-242.2 195.7-437.9 437.9-437.9 242.2 0 437.9 195.7 437.9 437.9 0 242.2-195.7 437.9-437.9 437.9z"/><path  d="m453.7 907.7v-106.3q-63.1-6-102.2-20-38.1-14-57.1-25.1l38.1-98.2q32 15.1 75.1 28.1 43.1 12 91.2 12 56.1 0 78.2-14 22-15 22-46.1 0-18-9-31.1-8-13-25-23-16.1-11-40.1-19.1-24.1-9-54.1-20-29.1-10-57.2-23.1-28-13-50.1-31-22-19.1-36-45.1-13.1-27.1-13.1-66.2 0-28 7-54.1 8.1-26 24.1-48.1 17-22 44.1-38.1 27.1-17 66.1-26v-97.2h114.3v92.2q46.1 4 81.2 14 36 10 56.1 18l-28.1 103.3q-29-12.1-69.1-21.1-39.1-10-81.2-10-48.1 0-67.1 17-18.1 17.1-18.1 40.1 0 16 6 27.1 7 10 20.1 18 14 8 33 16 19.1 7.1 45.1 16.1 39.1 15 72.2 32 33.1 16.1 57.1 38.1 24.1 21.1 37.1 50.1 14 29.1 14 68.2 0 27-8 54.1-8 26.1-27.1 49.1-18 22.1-49.1 39.1-30 16-76.1 23v107.3z"/></svg>